<svg xmlns="http://www.w3.org/2000/svg" viewBox="0 0 512 512">
<path fill-rule="evenodd" clip-rule="evenodd" d="M256 0C201.996 0 151.917 10.8937 114.452 29.6264C78.4224 47.6412 47 76.9689 47 116.5C47 116.667 47.0006 116.834 47.0017 117H47V394.5C47 434.031 78.4224 463.359 114.452 481.374C151.917 500.106 201.996 511 256 511C310.004 511 360.083 500.106 397.548 481.374C433.578 463.359 465 434.031 465 394.5V117H464.998C464.999 116.834 465 116.667 465 116.5C465 76.9689 433.578 47.6412 397.548 29.6264C360.083 10.8937 310.004 0 256 0ZM95 116.5C95 104.945 104.991 88.0224 135.918 72.5589C165.41 57.8131 207.832 48 256 48C304.168 48 346.59 57.8131 376.082 72.5589C407.009 88.0224 417 104.945 417 116.5C417 128.055 407.009 144.978 376.082 160.441C346.59 175.187 304.168 185 256 185C207.832 185 165.41 175.187 135.918 160.441C104.991 144.978 95 128.055 95 116.5ZM417 192.155C410.79 196.281 404.249 200.023 397.548 203.374C360.083 222.106 310.004 233 256 233C201.996 233 151.917 222.106 114.452 203.374C107.751 200.023 101.21 196.281 95 192.155V394.5C95 406.055 104.991 422.978 135.918 438.441C165.41 453.187 207.832 463 256 463C304.168 463 346.59 453.187 376.082 438.441C407.009 422.978 417 406.055 417 394.5V192.155Z"/>
</svg>
