<svg xmlns="http://www.w3.org/2000/svg" viewBox="0 0 512 512">
<defs><style>.fa-secondary{opacity:.4}</style></defs>
<path class="fa-primary" fill-rule="evenodd" clip-rule="evenodd" d="M512 256C512 397.385 397.385 512 256 512C114.615 512 0 397.385 0 256C0 114.615 114.615 0 256 0C397.385 0 512 114.615 512 256ZM186.928 426.524C189.796 436.76 193.011 446.466 196.6 455.395C129.489 435.432 76.5679 382.511 56.6051 315.4C65.5341 318.989 75.24 322.204 85.4764 325.072C109.953 331.93 139.137 337.259 171.326 340.674C174.741 372.863 180.07 402.047 186.928 426.524ZM220.032 344.246C223.188 370.597 227.691 394.094 233.148 413.574C238.705 433.409 244.882 447.719 250.708 456.515C254.094 461.627 256.33 463.434 257.191 463.997C350.905 463.471 429.941 400.971 455.395 315.4C446.466 318.989 436.76 322.204 426.524 325.072C381.892 337.577 321.611 345 256 345C243.805 345 231.793 344.743 220.032 344.246ZM463.997 254.809C463.434 255.67 461.627 257.906 456.515 261.292C447.719 267.118 433.409 273.295 413.574 278.852C374.238 289.873 318.519 297 256 297C242.304 297 228.935 296.658 215.992 296.008C215.342 283.065 215 269.696 215 256C215 193.481 222.127 137.762 233.148 98.426C238.705 78.5909 244.882 64.2806 250.708 55.4854C254.094 50.3726 256.33 48.5664 257.191 48.0033C371.121 48.6421 463.358 140.879 463.997 254.809ZM48.0033 254.809C48.5664 255.67 50.3726 257.906 55.4854 261.292C64.2806 267.118 78.5909 273.295 98.426 278.852C117.906 284.31 141.403 288.812 167.754 291.968C167.256 280.207 167 268.195 167 256C167 190.389 174.423 130.108 186.928 85.4764C189.796 75.24 193.011 65.5341 196.6 56.6051C111.029 82.0589 48.5287 161.095 48.0033 254.809Z"/>
<g class="fa-secondary">
<path d="M315.4 56.6051C296.941 51.1141 277.407 48.1167 257.191 48.0034C256.924 48.1779 256.525 48.4721 256 48.9472C257.167 50.0045 258.956 51.958 261.292 55.4854C267.118 64.2806 273.295 78.591 278.852 98.4261C284.31 117.906 288.812 141.403 291.968 167.754C280.207 167.256 268.195 167 256 167C243.805 167 231.793 167.256 220.032 167.754C218.212 182.958 216.84 199.112 215.992 215.992C228.935 215.342 242.304 215 256 215C269.696 215 283.065 215.342 296.008 215.992C296.658 228.935 297 242.304 297 256C297 269.696 296.658 283.065 296.008 296.008C312.888 295.16 329.042 293.788 344.246 291.968C344.744 280.207 345 268.195 345 256C345 243.805 344.744 231.793 344.246 220.032C370.597 223.188 394.094 227.691 413.574 233.148C433.409 238.705 447.719 244.882 456.515 250.708C460.042 253.044 461.996 254.833 463.053 256C463.528 255.475 463.822 255.076 463.997 254.809C463.883 234.593 460.886 215.059 455.395 196.6C446.466 193.011 436.76 189.796 426.524 186.928C402.047 180.07 372.863 174.741 340.674 171.326C337.259 139.137 331.93 109.953 325.072 85.4764C322.204 75.24 318.989 65.5341 315.4 56.6051Z"/>
<path d="M340.674 340.674C325.08 342.329 308.779 343.534 291.968 344.246C288.812 370.597 284.31 394.094 278.852 413.574C273.295 433.409 267.118 447.719 261.292 456.515C258.956 460.042 257.167 461.996 256 463.053C256.525 463.528 256.924 463.822 257.191 463.997C277.407 463.883 296.941 460.886 315.4 455.395C318.989 446.466 322.204 436.76 325.072 426.524C331.93 402.047 337.259 372.863 340.674 340.674Z"/>
<path d="M167.754 220.032C168.466 203.221 169.671 186.921 171.326 171.326C139.137 174.741 109.953 180.07 85.4764 186.928C75.24 189.796 65.5341 193.011 56.6051 196.6C51.1141 215.059 48.1167 234.593 48.0034 254.809C48.1779 255.076 48.4721 255.475 48.9472 256C50.0045 254.833 51.958 253.044 55.4854 250.708C64.2806 244.882 78.591 238.705 98.4261 233.148C117.906 227.691 141.403 223.188 167.754 220.032Z"/>
</g>
</svg>
