<svg xmlns="http://www.w3.org/2000/svg" viewBox="0 0 512 512">
<path fill-rule="evenodd" clip-rule="evenodd" d="M414.075 374.952C451.433 350.649 464 324.197 464 306V206C464 187.706 451.322 160.985 413.919 136.446C377.543 112.58 322.985 95 256 95C189.015 95 134.457 112.58 98.0807 136.446C60.6776 160.985 48 187.706 48 206V306C48 324.197 60.5666 350.649 97.9251 374.952C134.288 398.608 188.89 416 256 416C323.11 416 377.712 398.608 414.075 374.952ZM256 464C406 464 512 386.5 512 306V206C512 125.5 406 47 256 47C106 47 0 125.5 0 206V306C0 386.5 106 464 256 464Z"/>
<path fill-rule="evenodd" clip-rule="evenodd" d="M322.721 287.56C303.166 297.338 279.509 302 256 302C232.491 302 208.834 297.338 189.279 287.56C172.595 279.218 144 258.812 144 222C144 185.188 172.595 164.782 189.279 156.44C208.834 146.662 232.491 142 256 142C279.509 142 303.166 146.662 322.721 156.44C339.405 164.782 368 185.188 368 222C368 258.812 339.405 279.218 322.721 287.56ZM256 254C291.346 254 320 239.673 320 222C320 204.327 291.346 190 256 190C220.654 190 192 204.327 192 222C192 239.673 220.654 254 256 254Z"/>
</svg>
