<svg width="72" height="74" viewBox="0 0 72 74" fill="none" xmlns="http://www.w3.org/2000/svg">
<path d="M35.9831 0.750001L35.983 0.750001C29.0106 0.753442 22.1963 2.87328 16.4015 6.84078C10.6069 10.8082 6.09228 16.4449 3.42761 23.0375C0.762958 29.6301 0.0675919 36.8832 1.42919 43.88C2.7908 50.8768 6.14842 57.304 11.0784 62.3487C16.0085 67.3934 22.2897 70.8291 29.1282 72.2203C35.9667 73.6116 43.0546 72.8958 49.4954 70.1636C55.9362 67.4314 61.4401 62.806 65.312 56.8729C69.1838 50.9399 71.25 43.9655 71.25 36.8313C71.2489 32.0926 70.3361 27.4005 68.5636 23.0228C66.7912 18.645 64.1936 14.6671 60.9191 11.3164C57.6445 7.96571 53.7571 5.30777 49.4785 3.49466C45.1999 1.68155 40.6141 0.748858 35.9831 0.750001ZM35.9834 9.88613C41.1864 9.88618 46.2731 11.4657 50.6003 14.4257C54.9276 17.3858 58.3012 21.5937 60.2935 26.5179C62.2859 31.4422 62.8073 36.8611 61.7915 42.0891C60.7757 47.3171 58.2686 52.1185 54.588 55.8865C50.9075 59.6544 46.219 62.2197 41.1157 63.2589C36.0124 64.2982 30.7226 63.7649 25.915 61.7262C21.1074 59.6875 16.9973 56.2347 14.1051 51.8035C11.213 47.3723 9.66895 42.162 9.66891 36.8315C9.67555 29.6854 12.4515 22.835 17.3856 17.7837C22.3196 12.7325 29.0083 9.89292 35.9834 9.88613Z" fill="#FC6B68" stroke="#FC6B68" stroke-width="0.5"/>
<path d="M39.948 19.1899C37.7975 18.6843 35.9834 20.5208 35.9834 22.73V23.7178C35.9834 25.7327 37.6794 27.3026 39.5344 28.0893C40.6603 28.5667 41.6832 29.2664 42.5449 30.1486C43.4066 31.0307 44.0901 32.0779 44.5564 33.2305C45.3283 35.1382 46.9311 36.8659 48.989 36.8659H49.6985C51.9077 36.8659 53.7419 35.0547 53.2691 32.8967C52.54 29.5693 50.9025 26.4913 48.5099 24.0419C46.1388 21.6144 43.1647 19.9462 39.948 19.1899Z" fill="#FC6B68"/>
</svg>
